<?xml version="1.0" encoding="utf-8"?>
<!-- Generator: Adobe Illustrator 25.0.1, SVG Export Plug-In . SVG Version: 6.00 Build 0)  -->
<svg version="1.1" id="Layer_1" xmlns="http://www.w3.org/2000/svg" xmlns:xlink="http://www.w3.org/1999/xlink" x="0px" y="0px"
	 viewBox="0 0 1125 2436" style="enable-background:new 0 0 1125 2436;" xml:space="preserve">
<style type="text/css">
	.st0{fill:#4D62AD;}
	.st1{fill-rule:evenodd;clip-rule:evenodd;fill:#FFFFFF;}
</style>
<rect x="-461.5" y="-148" class="st0" width="2048" height="2732"/>
<path class="st1" d="M768.6,1140.9h-81c0,0-5,0-5,4.9v80.6c0,0,0,4.9,5,4.9h81c0,0,4.9,0,4.9-4.9v-80.6
	C773.5,1145.8,773.5,1140.9,768.6,1140.9z M728.7,1146.4l17.9,18.6c-0.6,0.1-10.9,0.1-10.9,0.1l0.1,0.2l-0.1,39.3l-10.2,0
	c-1.1,0-2.5,0-3.6,0l-0.1-39.4L711,1165l-0.1,0L728.7,1146.4z M764.1,1207c-1.8,4.3-5.6,7.8-9.7,10.5c-9,6-20.4,8.5-31.4,7.1
	c-1-0.1-2-0.3-3-0.4h0v-0.1c-3-0.4-6-1.4-8.9-2.3c-6.8-2.6-13.6-6.9-17.9-13.4c-1.5-2.6-2.5-5.5-2.8-8.5c-0.3-5.6,2-10.7,5.7-14.7
	c1-1.2,2.2-2.1,3.2-3.1v-0.1c-1.9-1.4-3.9-2.6-5.7-4l0.2-0.1l19.7,0.1l0.1,0l0.1,0.1l0,13.7l0,0l-4.5-3c-2,1.6-3.1,4-4.2,6.2
	c-1.3,3.4-1,7.3,1.1,10.2c2.2,3.7,5.7,5.7,9.4,7.5c4,1.6,8.2,2.6,12.7,2.5c7-0.2,14.2-2.4,19.1-7.1c2.3-2.3,4.6-5.5,4.3-9.1
	c0.2-6.1-4.5-10.6-9.4-13.6v-0.1l9.9-6.4c0.1,0,0.2-0.1,0.2-0.2c2.4,1.8,5.1,3.1,7.1,5.6c2.5,2.7,4.7,5.6,5.5,9
	C766.1,1198,765.9,1202.7,764.1,1207z"/>
<path class="st1" d="M348.7,1140.9v90.5h53.5v-20.3h-29.1v-70.2H348.7z"/>
<path class="st1" d="M405.6,1231.4h25.2v-90.5h-25.2V1231.4z"/>
<path class="st1" d="M580.2,1140.9l26,0.1c0,12.1-0.2,23.9,0,35.6l17.8-35.6h28.9l-22.7,41l21.1,49.4H624l-17.8-42.9v-0.3v43.2
	h-48.6l-3.2-14.1h-19l-3.3,14.1h-46.6l-22.2-42.7h-0.3v42.7h-24.3v-90.4h23.7l22.5,42.1l0.4,0.4c0.3-15.1,0.2-42.6,0.2-42.6l24.8,0
	l0,74.3l0.2,0.3l21-74.6l28.7,0.1l20,75.6c0,0.2,0.1,0.3,0.1,0.4V1140.9z M549.4,1196.4l-4.4-20.5l-4.8,20.5H549.4z"/>
<path class="st1" d="M657.9,1148.9c0-4.6,3.7-7.9,8.1-7.9c4.3,0,8.1,3.4,8.1,7.9c0,4.6-3.7,8-8.1,8
	C661.6,1156.8,657.9,1153.5,657.9,1148.9z M666,1156c3.9,0,7-3,7-7.2c0-4.1-3.1-7.1-7-7.1c-4,0-7,3.1-7,7.1
	C658.9,1153,662,1156,666,1156z M664.2,1153.6h-1.4v-9.3h3.6c2.2,0,3.3,0.8,3.3,2.7c0,1.7-1.1,2.4-2.4,2.6l2.7,4.1h-1.6l-2.5-4.1
	h-1.6V1153.6z M665.9,1148.3c1.2,0,2.3-0.1,2.3-1.5c0-1.2-1.1-1.4-2-1.4h-1.9v2.9H665.9z"/>
</svg>
