<?xml version="1.0" encoding="utf-8"?>
<!-- Generator: Adobe Illustrator 25.0.1, SVG Export Plug-In . SVG Version: 6.00 Build 0)  -->
<svg version="1.1" id="Layer_1" xmlns="http://www.w3.org/2000/svg" xmlns:xlink="http://www.w3.org/1999/xlink" x="0px" y="0px"
	 viewBox="0 0 640 1136" style="enable-background:new 0 0 640 1136;" xml:space="preserve">
<style type="text/css">
	.st0{fill:#4D62AD;}
	.st1{fill-rule:evenodd;clip-rule:evenodd;fill:#FFFFFF;}
</style>
<rect x="-704" y="-798" class="st0" width="2048" height="2732"/>
<path class="st1" d="M444,526.7h-48.9c0,0-3,0-3,3v48.7c0,0,0,3,3,3H444c0,0,3,0,3-3v-48.7C447,529.7,447,526.7,444,526.7z
	 M419.9,530l10.8,11.2c-0.4,0-6.6,0-6.6,0l0,0.1l0,23.7l-6.2,0c-0.7,0-1.5,0-2.2,0l-0.1-23.8l-6.5-0.1l-0.1,0L419.9,530z
	 M441.3,566.6c-1.1,2.6-3.4,4.7-5.8,6.3c-5.4,3.6-12.3,5.1-19,4.3c-0.6,0-1.2-0.2-1.8-0.2h0v0c-1.8-0.3-3.6-0.8-5.4-1.4
	c-4.1-1.5-8.2-4.2-10.8-8.1c-0.9-1.6-1.5-3.3-1.7-5.1c-0.2-3.4,1.2-6.4,3.4-8.9c0.6-0.7,1.3-1.2,2-1.9v-0.1
	c-1.1-0.8-2.3-1.6-3.5-2.4l0.1-0.1l11.9,0l0,0l0.1,0.1l0,8.3l0,0l-2.7-1.8c-1.2,1-1.9,2.4-2.5,3.7c-0.8,2-0.6,4.4,0.7,6.2
	c1.4,2.2,3.4,3.5,5.7,4.5c2.4,1,5,1.6,7.7,1.5c4.2-0.1,8.6-1.5,11.5-4.3c1.4-1.4,2.8-3.4,2.6-5.5c0.1-3.7-2.7-6.4-5.7-8.2v0l6-3.9
	c0,0,0.1,0,0.1-0.1c1.4,1.1,3.1,1.9,4.3,3.4c1.5,1.6,2.9,3.4,3.3,5.5C442.5,561.2,442.4,564.1,441.3,566.6z"/>
<path class="st1" d="M190.3,526.7v54.7h32.3v-12.3H205v-42.4H190.3z"/>
<path class="st1" d="M224.6,581.4h15.2v-54.7h-15.2V581.4z"/>
<path class="st1" d="M330.1,526.7l15.7,0c0,7.3-0.1,14.5,0,21.5l10.8-21.5h17.5l-13.7,24.8l12.8,29.9h-16.5l-10.8-25.9v-0.2v26.1
	h-29.4l-2-8.5H303l-2,8.5h-28.2l-13.4-25.8h-0.2v25.8h-14.7v-54.6h14.3l13.6,25.5l0.3,0.3c0.2-9.1,0.1-25.7,0.1-25.7l15,0l0,44.9
	l0.1,0.2l12.7-45.1l17.3,0l12.1,45.7c0,0.1,0,0.2,0.1,0.3V526.7z M311.5,560.2l-2.7-12.4l-2.9,12.4H311.5z"/>
<path class="st1" d="M377.1,531.5c0-2.8,2.2-4.8,4.9-4.8c2.6,0,4.9,2,4.9,4.8c0,2.8-2.2,4.8-4.9,4.8
	C379.3,536.3,377.1,534.3,377.1,531.5z M382,535.9c2.4,0,4.2-1.8,4.2-4.3c0-2.5-1.9-4.3-4.2-4.3c-2.4,0-4.2,1.9-4.2,4.3
	C377.7,534,379.6,535.9,382,535.9z M380.9,534.4h-0.9v-5.6h2.2c1.3,0,2,0.5,2,1.6c0,1-0.6,1.4-1.5,1.6l1.6,2.5h-1l-1.5-2.4h-1V534.4
	z M382,531.2c0.7,0,1.4-0.1,1.4-0.9c0-0.7-0.6-0.8-1.2-0.8h-1.2v1.7H382z"/>
</svg>
