<?xml version="1.0" encoding="utf-8"?>
<!-- Generator: Adobe Illustrator 25.0.1, SVG Export Plug-In . SVG Version: 6.00 Build 0)  -->
<svg version="1.1" id="Layer_1" xmlns="http://www.w3.org/2000/svg" xmlns:xlink="http://www.w3.org/1999/xlink" x="0px" y="0px"
	 viewBox="0 0 1668 2224" style="enable-background:new 0 0 1668 2224;" xml:space="preserve">
<style type="text/css">
	.st0{fill:#4D62AD;}
	.st1{fill-rule:evenodd;clip-rule:evenodd;fill:#FFFFFF;}
</style>
<rect x="-190" y="-254" class="st0" width="2048" height="2732"/>
<path class="st1" d="M1168.5,978.9h-131.1c0,0-8,0-8,8v130.5c0,0,0,8,8,8h131.1c0,0,8,0,8-8V986.8
	C1176.5,986.8,1176.5,978.9,1168.5,978.9z M1103.8,987.8l28.9,30.1c-1,0.1-17.7,0.1-17.7,0.1l0.1,0.3l-0.1,63.6l-16.5,0
	c-1.8,0-4,0-5.8,0l-0.2-63.8l-17.4-0.2l-0.2,0L1103.8,987.8z M1161.2,1085.8c-2.9,6.9-9.1,12.7-15.6,16.9
	c-14.5,9.7-33,13.8-50.9,11.5c-1.6-0.1-3.3-0.4-4.8-0.7h0v-0.1c-4.9-0.7-9.7-2.2-14.3-3.7c-11-4.2-22.1-11.1-28.9-21.7
	c-2.4-4.2-4.1-8.9-4.6-13.8c-0.5-9,3.2-17.3,9.2-23.7c1.7-1.9,3.5-3.3,5.2-5v-0.2c-3-2.2-6.3-4.3-9.2-6.5l0.4-0.2l32,0.1l0.1,0
	l0.2,0.2l-0.1,22.2l-0.1,0.1l-7.4-4.9c-3.2,2.6-5.1,6.4-6.8,10c-2,5.5-1.6,11.8,1.8,16.5c3.6,6,9.2,9.3,15.2,12.2
	c6.4,2.6,13.4,4.2,20.5,4.1c11.4-0.3,23-4,30.9-11.5c3.7-3.7,7.4-9,7-14.7c0.3-9.8-7.3-17.2-15.2-21.9v-0.1l16-10.4
	c0.1,0,0.3-0.1,0.4-0.3c3.9,2.8,8.3,5.1,11.5,9c4,4.4,7.6,9,8.9,14.6C1164.5,1071.3,1164.2,1079,1161.2,1085.8z"/>
<path class="st1" d="M488.7,978.9v146.5h86.5v-32.8h-47.1V978.9H488.7z"/>
<path class="st1" d="M580.9,1125.3h40.7V978.9h-40.7V1125.3z"/>
<path class="st1" d="M863.5,978.9l42.1,0.1c0,19.5-0.3,38.8,0,57.7l28.9-57.7h46.8l-36.8,66.3l34.2,80h-44.1l-28.9-69.5v-0.4v69.9
	h-78.7l-5.2-22.8h-30.8l-5.4,22.8H710l-36-69.2h-0.4v69.2h-39.3V979h38.3l36.4,68.2l0.7,0.7c0.6-24.4,0.3-68.9,0.3-68.9l40.2,0
	l0,120.3l0.3,0.4l34-120.8l46.4,0.1l32.4,122.3c0,0.3,0.1,0.4,0.2,0.7V978.9z M813.6,1068.7l-7.2-33.2l-7.7,33.2H813.6z"/>
<path class="st1" d="M989.2,991.8c0-7.4,6-12.8,13.1-12.8c7,0,13,5.4,13,12.8c0,7.4-6,12.9-13,12.9
	C995.3,1004.7,989.2,999.2,989.2,991.8z M1002.4,1003.4c6.3,0,11.3-4.9,11.3-11.6c0-6.6-5-11.6-11.3-11.6c-6.4,0-11.4,5-11.4,11.6
	C991,998.5,996,1003.4,1002.4,1003.4z M999.6,999.4h-2.3v-15.1h5.8c3.6,0,5.4,1.3,5.4,4.3c0,2.7-1.7,3.9-3.9,4.2l4.3,6.7h-2.6
	l-4-6.6h-2.7V999.4z M1002.3,990.9c2,0,3.7-0.1,3.7-2.5c0-1.9-1.7-2.2-3.3-2.2h-3.1v4.7H1002.3z"/>
</svg>
