<svg width="48" height="48" viewBox="0 0 48 48" fill="none" xmlns="http://www.w3.org/2000/svg">
<path d="M48 24C48 37.2548 37.2548 48 24 48C10.7452 48 0 37.2548 0 24C0 10.7452 10.7452 0 24 0C37.2548 0 48 10.7452 48 24Z" fill="white"/>
<path d="M9.67142 36.0214L18.4143 28.9786H28.0071L38.8143 17.6857" stroke="#3D5AF1" stroke-width="3" stroke-miterlimit="10" stroke-linecap="round" stroke-linejoin="round"/>
<path opacity="0.5" d="M28.7357 8.57858V29.5857L19.2643 29.7072V38.8143" stroke="#3D5AF1" stroke-width="2" stroke-miterlimit="10" stroke-linecap="round" stroke-linejoin="round" stroke-dasharray="3 3"/>
<path d="M31.5286 15.7429V18.7786C31.5286 18.9 31.5286 18.9 31.65 19.0214C31.7714 19.1429 31.7714 19.1429 31.8929 19.1429H32.1357C32.2571 19.1429 32.2571 19.1429 32.3786 19.0214C32.5 18.9 32.5 18.9 32.5 18.7786V16.9571L35.2929 19.75C35.4143 19.8714 35.6571 19.8714 35.7786 19.75L36.0214 19.5071C36.1429 19.3857 36.1429 19.1429 36.0214 19.0214L33.2286 16.2286H35.05C35.1714 16.2286 35.1714 16.2286 35.2929 16.1071C35.4143 15.9857 35.4143 15.9857 35.4143 15.8643V15.6214C35.4143 15.5 35.4143 15.5 35.2929 15.3786C35.1714 15.2571 35.1714 15.2571 35.05 15.2571H32.0143C31.8929 15.2571 31.8929 15.2571 31.7714 15.3786C31.5286 15.5 31.5286 15.6214 31.5286 15.7429Z" fill="#3D5AF1"/>
<path d="M16.35 38.45V35.4143C16.35 35.2929 16.35 35.2929 16.2286 35.1715C16.1071 35.05 16.1071 35.05 15.9857 35.05H15.7429C15.6214 35.05 15.6214 35.05 15.5 35.1715C15.5 35.2929 15.5 35.2929 15.5 35.4143V37.2357L12.7071 34.4429C12.5857 34.3214 12.3429 34.3214 12.2214 34.4429L11.9786 34.6857C11.8571 34.6857 11.8571 34.9286 11.9786 35.05L14.7714 37.8429H12.95C12.8286 37.8429 12.8286 37.8429 12.7071 37.9643C12.5857 38.0857 12.5857 38.0857 12.5857 38.2072V38.45C12.5857 38.5714 12.5857 38.5715 12.7071 38.6929C12.8286 38.8143 12.8286 38.8143 12.95 38.8143H15.9857C16.1071 38.8143 16.1071 38.8143 16.2286 38.6929C16.35 38.5715 16.35 38.5714 16.35 38.45Z" fill="#3D5AF1"/>
</svg>
