<svg width="48" height="48" viewBox="0 0 48 48" fill="none" xmlns="http://www.w3.org/2000/svg">
<circle cx="24" cy="24" r="24" fill="white"/>
<path opacity="0.5" d="M13.0875 35.475L19.95 27.15H29.2875L35.7 10.05" stroke="#3D5AF1" stroke-width="3" stroke-miterlimit="10" stroke-linecap="round" stroke-linejoin="round"/>
<path d="M24.1125 36.4875C18.375 36.4875 13.7625 31.875 13.7625 26.1375C13.7625 20.4 18.375 15.7875 24.1125 15.7875C24.45 15.7875 24.9 15.7875 25.2375 15.9V14.2125C25.2375 13.9875 25.35 13.7625 25.575 13.7625C25.8 13.65 26.025 13.7625 26.1375 13.875L29.85 17.5875C30.075 17.8125 30.075 18.15 29.85 18.375L26.1375 22.0875C26.025 22.2 25.8 22.3125 25.575 22.2C25.35 22.0875 25.2375 21.975 25.2375 21.75V19.95C24.9 19.8375 24.45 19.8375 24.1125 19.8375C20.5125 19.8375 17.5875 22.7625 17.5875 26.3625C17.5875 29.9625 20.5125 32.8875 24.1125 32.8875C27.7125 32.8875 30.6375 29.9625 30.6375 26.3625C30.6375 26.025 30.8625 25.8 31.2 25.8H33.9C34.2375 25.8 34.4625 26.025 34.4625 26.3625C34.4625 31.875 29.7375 36.4875 24.1125 36.4875Z" fill="#3D5AF1"/>
</svg>
